<?xml version="1.0" encoding="UTF-8"?>
<!DOCTYPE svg PUBLIC "-//W3C//DTD SVG 1.1//EN" "http://www.w3.org/Graphics/SVG/1.1/DTD/svg11.dtd">
<svg xmlns="http://www.w3.org/2000/svg" version="1.1" width="1500px" height="656px" style="shape-rendering:geometricPrecision; text-rendering:geometricPrecision; image-rendering:optimizeQuality; fill-rule:evenodd; clip-rule:evenodd" xmlns:xlink="http://www.w3.org/1999/xlink">
<g><path style="opacity:0.961" fill="#e10035" d="M 641.5,-0.5 C 680.167,-0.5 718.833,-0.5 757.5,-0.5C 772.159,0.223515 786.825,1.39018 801.5,3C 628.109,3.3781 461.442,36.8781 301.5,103.5C 299.337,88.0093 293.004,74.5093 282.5,63C 341.598,41.7252 402.265,26.3919 464.5,17C 523.331,7.88025 582.331,2.04691 641.5,-0.5 Z"/></g>
<g><path style="opacity:0.979" fill="#005ca8" d="M 236.5,60.5 C 270.508,61.852 286.674,79.5186 285,113.5C 277.509,139.973 260.009,151.807 232.5,149C 204.916,140.689 193.416,122.189 198,93.5C 204.305,74.6826 217.139,63.6826 236.5,60.5 Z"/></g>
<g><path style="opacity:0.981" fill="#e10035" d="M 1499.5,438.5 C 1499.5,439.167 1499.5,439.833 1499.5,440.5C 1476.35,464.907 1450.35,485.74 1421.5,503C 1359.27,540.778 1293.27,570.445 1223.5,592C 1096.91,630.63 967.572,651.797 835.5,655.5C 792.167,655.5 748.833,655.5 705.5,655.5C 593.902,652.258 483.569,638.092 374.5,613C 303.171,596.448 234.838,571.781 169.5,539C 135.039,520.855 103.039,499.189 73.5,474C 53.6537,456.171 36.8203,436.004 23,413.5C 10.6587,392.638 2.82536,370.304 -0.5,346.5C -0.5,334.833 -0.5,323.167 -0.5,311.5C 6.26334,269.974 23.7633,233.641 52,202.5C 89.3228,162.341 132.489,130.008 181.5,105.5C 183.04,124.749 191.04,140.582 205.5,153C 183.117,167.87 161.784,184.203 141.5,202C 118.825,222.67 101.658,247.17 90,275.5C 81.1761,302.576 81.5095,329.576 91,356.5C 102.772,388.555 120.939,416.388 145.5,440C 180.044,471.624 218.71,497.291 261.5,517C 331.047,548.14 403.381,570.474 478.5,584C 598.564,605.362 719.564,614.362 841.5,611C 963.551,609.402 1084.22,595.735 1203.5,570C 1271.66,554.834 1337.33,532.501 1400.5,503C 1436.26,485.472 1469.26,463.972 1499.5,438.5 Z"/></g>
<g><path style="opacity:0.984" fill="#005ca8" d="M 542.5,125.5 C 558.856,123.906 574.189,127.072 588.5,135C 589.574,135.739 590.241,136.739 590.5,138C 587.09,148.915 582.923,159.415 578,169.5C 558.177,157.582 546.51,162.916 543,185.5C 542.5,197.495 542.333,209.495 542.5,221.5C 555.5,221.5 568.5,221.5 581.5,221.5C 579.038,233.811 576.704,246.144 574.5,258.5C 563.833,258.5 553.167,258.5 542.5,258.5C 542.5,317.833 542.5,377.167 542.5,436.5C 528.167,436.5 513.833,436.5 499.5,436.5C 499.5,377.167 499.5,317.833 499.5,258.5C 494.833,258.5 490.167,258.5 485.5,258.5C 485.5,246.167 485.5,233.833 485.5,221.5C 490.167,221.5 494.833,221.5 499.5,221.5C 497.781,204.099 498.281,186.765 501,169.5C 505.567,145.774 519.401,131.107 542.5,125.5 Z"/></g>
<g><path style="opacity:0.966" fill="#005ca8" d="M 632.5,136.5 C 652.571,138.403 662.071,149.403 661,169.5C 656.205,187.154 644.705,194.654 626.5,192C 610.974,186.803 604.14,175.969 606,159.5C 609.465,145.528 618.299,137.862 632.5,136.5 Z"/></g>
<g><path style="opacity:0.991" fill="#005ca8" d="M 261.5,177.5 C 263.497,263.494 264.164,349.827 263.5,436.5C 249.5,436.5 235.5,436.5 221.5,436.5C 221.167,352.164 221.5,267.831 222.5,183.5C 235.636,181.57 248.636,179.57 261.5,177.5 Z"/></g>
<g><path style="opacity:0.977" fill="#005ca8" d="M 942.5,215.5 C 978.695,215.192 1001.53,232.525 1011,267.5C 1016.5,291.853 1018.67,316.519 1017.5,341.5C 985.833,341.5 954.167,341.5 922.5,341.5C 920.999,358.194 924.166,373.861 932,388.5C 946.547,404.482 963.047,406.648 981.5,395C 987.302,390.865 992.802,386.365 998,381.5C 1004.2,391.394 1010.03,401.56 1015.5,412C 991.638,439.172 962.305,447.505 927.5,437C 907.727,427.893 894.227,413.059 887,392.5C 882.102,378.907 879.102,364.907 878,350.5C 877.333,335.167 877.333,319.833 878,304.5C 879.33,283.839 884.996,264.506 895,246.5C 906.006,228.642 921.84,218.308 942.5,215.5 Z M 945.5,251.5 C 954.565,250.951 961.732,254.285 967,261.5C 969.455,265.531 971.121,269.864 972,274.5C 973.907,285.083 974.74,295.749 974.5,306.5C 957.167,306.5 939.833,306.5 922.5,306.5C 921.679,290.774 924.512,275.774 931,261.5C 934.689,256.28 939.522,252.947 945.5,251.5 Z"/></g>
<g><path style="opacity:0.979" fill="#005ca8" d="M 1111.5,215.5 C 1144.5,215.078 1167.33,230.078 1180,260.5C 1190.71,290.997 1194.04,322.331 1190,354.5C 1188,379.852 1179.33,402.518 1164,422.5C 1145.79,440.081 1124.29,445.914 1099.5,440C 1077.39,432.552 1062.55,417.719 1055,395.5C 1043.83,360.108 1041.5,324.108 1048,287.5C 1051.82,264.016 1062.32,244.182 1079.5,228C 1089.15,220.954 1099.82,216.787 1111.5,215.5 Z M 1114.5,254.5 C 1126.71,254.858 1134.87,260.858 1139,272.5C 1141.69,279.943 1143.36,287.609 1144,295.5C 1145.96,316.498 1145.96,337.498 1144,358.5C 1143.26,368.107 1141.26,377.44 1138,386.5C 1132.3,401.609 1122.13,406.109 1107.5,400C 1102.05,395.601 1098.22,390.101 1096,383.5C 1091.3,365.323 1089.14,346.823 1089.5,328C 1089.1,309.499 1091.26,291.333 1096,273.5C 1099.05,263.949 1105.22,257.616 1114.5,254.5 Z"/></g>
<g><path style="opacity:0.983" fill="#005ca8" d="M 342.5,216.5 C 344.167,216.5 345.833,216.5 347.5,216.5C 349.574,224.372 351.074,232.372 352,240.5C 371.897,218.568 395.73,212.734 423.5,223C 436.714,232.254 443.548,245.087 444,261.5C 444.5,319.832 444.667,378.166 444.5,436.5C 430.5,436.5 416.5,436.5 402.5,436.5C 402.932,382.484 402.432,328.484 401,274.5C 399.898,264.564 394.398,259.231 384.5,258.5C 372.483,261.334 362.65,267.667 355,277.5C 354.5,330.499 354.333,383.499 354.5,436.5C 340.5,436.5 326.5,436.5 312.5,436.5C 312.667,378.499 312.5,320.499 312,262.5C 311.237,251.399 309.737,240.399 307.5,229.5C 307.57,228.228 307.903,227.062 308.5,226C 320.039,223.119 331.373,219.952 342.5,216.5 Z"/></g>
<g><path style="opacity:0.976" fill="#005ca8" d="M 737.5,216.5 C 739.144,216.286 740.644,216.62 742,217.5C 744.297,224.688 745.964,232.022 747,239.5C 767.312,218.276 791.145,212.776 818.5,223C 832.898,233.3 839.731,247.467 839,265.5C 839.5,322.499 839.667,379.499 839.5,436.5C 825.167,436.5 810.833,436.5 796.5,436.5C 796.667,382.832 796.5,329.166 796,275.5C 795.028,265.363 789.528,259.696 779.5,258.5C 767.436,261.403 757.602,267.736 750,277.5C 749.5,330.499 749.333,383.499 749.5,436.5C 735.5,436.5 721.5,436.5 707.5,436.5C 707.667,379.499 707.5,322.499 707,265.5C 706.331,252.651 704.498,239.984 701.5,227.5C 701.709,226.914 702.043,226.414 702.5,226C 714.415,223.274 726.082,220.107 737.5,216.5 Z"/></g>
<g><path style="opacity:0.976" fill="#005ca8" d="M 1255.5,216.5 C 1257.14,216.286 1258.64,216.62 1260,217.5C 1262.05,224.742 1263.72,232.075 1265,239.5C 1281.9,221.865 1302.4,215.032 1326.5,219C 1348.37,227.526 1358.53,243.693 1357,267.5C 1357.5,323.832 1357.67,380.166 1357.5,436.5C 1343.17,436.5 1328.83,436.5 1314.5,436.5C 1314.67,383.166 1314.5,329.832 1314,276.5C 1313.5,265.832 1308,259.832 1297.5,258.5C 1285.29,261.187 1275.45,267.52 1268,277.5C 1267.5,330.499 1267.33,383.499 1267.5,436.5C 1253.5,436.5 1239.5,436.5 1225.5,436.5C 1225.67,380.166 1225.5,323.832 1225,267.5C 1224.48,253.972 1222.64,240.639 1219.5,227.5C 1219.71,226.914 1220.04,226.414 1220.5,226C 1232.42,223.274 1244.08,220.107 1255.5,216.5 Z"/></g>
<g><path style="opacity:0.979" fill="#005ca8" d="M 650.5,217.5 C 652.167,217.5 653.833,217.5 655.5,217.5C 655.5,290.5 655.5,363.5 655.5,436.5C 641.167,436.5 626.833,436.5 612.5,436.5C 612.5,365.167 612.5,293.833 612.5,222.5C 625.374,221.374 638.041,219.707 650.5,217.5 Z"/></g>
</svg>
